PathFileType	4	(X/Y/Z)	Patient4_TMGait_0pt6_02_left_12.trc.trc
DataRate	CameraRate	NumFrames	NumMarkers	Units	OrigDataRate	OrigDataStartFrame	OrigNumFrames
79.096045197740	79.096045197740	4	33	mm	79.096045197740	18	       141
Frame#	Time	Sacral			L.Shoulder			Chest			R.Shoulder			Neck			R.ASIS			L.ASIS			R.Thigh.Superior			R.Thigh.Lateral			R.Thigh.Inferior			R.Patella			L.Thigh.Superior			L.Thigh.Lateral			L.Thigh.Inferior			L.Patella			L.Shank.Superior			L.Shank.Lateral			L.Shank.Inferior			R.Shank.Superior			R.Shank.Lateral			R.Shank.Inferior			R.Heel			R.Midfoot.Superior			R.Midfoot.Lateral			R.Toe			L.Heel			L.Midfoot.Lateral			L.Midfoot.Superior			L.Toe			L.Elbow			L.Wrist			R.Elbow			R.Wrist			
		X1	Y1	Z1	X2	Y2	Z2	X3	Y3	Z3	X4	Y4	Z4	X5	Y5	Z5	X6	Y6	Z6	X7	Y7	Z7	X8	Y8	Z8	X9	Y9	Z9	X10	Y10	Z10	X11	Y11	Z11	X12	Y12	Z12	X13	Y13	Z13	X14	Y14	Z14	X15	Y15	Z15	X16	Y16	Z16	X17	Y17	Z17	X18	Y18	Z18	X19	Y19	Z19	X20	Y20	Z20	X21	Y21	Z21	X22	Y22	Z22	X23	Y23	Z23	X24	Y24	Z24	X25	Y25	Z25	X26	Y26	Z26	X27	Y27	Z27	X28	Y28	Z28	X29	Y29	Z29	X30	Y30	Z30	X31	Y31	Z31	X32	Y32	Z32	X33	Y33	Z33	

18	14.924928571429	715.571398257802	1003.520095913025	514.894014710071	869.401722841518	1437.198019147953	335.106920278392	990.575470752837	1359.590192569393	478.134596600596	931.772889214382	1428.979702901862	662.197841580201	887.926400723926	1491.943379259302	487.475253827068	947.115128170678	940.595745687517	618.676526230353	918.508211807543	959.948018594607	344.169960323369	955.469082524756	730.069201018528	587.483102929279	857.519535038984	630.167252941696	647.243058584233	922.271134564092	569.373888596583	566.367951461016	907.308851200840	481.931038755952	569.296855500741	995.632205348222	777.360869140255	368.806640944730	949.346574479668	647.445346896684	289.145791030663	1055.596384284654	590.893453235485	349.124861547968	1085.839997593002	530.239566555064	346.262938500373	1075.172456529062	459.998550397368	337.015078857133	1022.231579542003	324.528751924954	285.622143032353	1119.793962648119	234.566909779279	338.807368948662	871.085634026250	396.203507116559	573.890461174290	789.068952964944	298.855042545802	633.157409055256	820.792610668466	202.208057073728	566.453742985923	673.050013151875	42.711167958828	533.483315036500	846.029135406693	96.770037597498	567.050029528118	757.539978186184	36.715943194583	606.278347843550	965.455571642750	43.970073092575	592.560218727164	1053.358359063046	50.468860602062	379.376399855980	1126.735840882823	56.751885094871	299.262903014399	1192.485915622933	139.018443995275	316.260460505675	1327.529907796375	117.557453914674	291.125261635869	743.793440504407	1106.910847597265	228.323564941675	768.375357355283	847.144739987536	203.199551686613	1043.095679406055	1095.364478967298	752.642135350144	1275.480936356641	1088.865148378610	647.802642100321	
19	14.937571428571	715.956642809494	1002.415038883989	513.547725247490	868.756872616018	1436.074124298639	333.482703278453	990.248039323481	1358.744087553348	476.302730969675	931.617793980300	1428.064593610618	660.347679864851	887.338032570433	1490.861614661565	485.777710556673	947.460095203664	939.403657809145	617.292221130015	918.930973373268	958.696875159145	342.705884879596	954.617357212871	728.551541546636	586.269791511065	856.077457643676	629.135953375699	646.235003095691	920.249719724436	567.852586457193	565.221839132022	904.504016057573	480.219797307386	568.107238008379	996.002605750365	776.021181678500	368.225618011749	949.576434378882	645.652351783062	289.412316930184	1055.390635782595	589.245546482025	349.602200711462	1085.172883627967	528.029799318126	347.004914151689	1073.853439203669	457.280730393425	337.873243958877	1019.277973892020	322.318025198197	287.202853038763	1115.737362780417	231.537172666688	340.657179745754	867.335354401428	394.812604580763	572.898490620390	784.480506205368	298.421430643351	632.612553360220	814.611387879126	201.422563985645	565.854656910256	665.420889074548	42.682630139178	533.454048019684	838.393523838265	96.601906498958	566.876930044463	749.862293430874	36.642395972271	606.180389139137	957.835626209848	43.716052796317	592.566122975555	1047.242548131861	48.892079609832	382.150058812259	1120.196641081436	54.132715566573	301.598309567279	1187.215508306175	135.155354482666	318.356353973018	1321.662911507793	111.619792552550	292.448305640950	742.568858596602	1106.082638605708	227.005391596740	765.892294553168	846.052866942668	203.244041266514	1048.793398562587	1096.942625505315	749.195032085419	1279.218474119876	1101.001193552608	640.965839041675	
20	14.950214285714	716.539089348563	1001.090030508966	512.042440345335	868.116271705533	1434.746391965859	331.628924841962	989.942989564427	1357.821143480454	474.291318943312	931.390577436991	1427.091536427786	658.294044789463	886.711966294604	1489.640403375438	483.839786505980	948.007277756369	938.077462845657	615.839710687366	919.642309255816	957.267251507647	341.185336942771	954.103800057040	726.895562109303	585.040416908678	854.978456115464	627.943142922297	645.152101608296	918.602916974054	566.181156211612	564.013098138080	902.038527664061	478.316891624937	566.819990129852	996.787126270652	774.481392779244	367.822881136476	950.188227258277	643.733261526974	289.796060123289	1055.411648490276	587.413083457973	350.393152110533	1084.553313649649	525.352876402787	348.070134009385	1072.353408852366	454.011648072675	338.949103784131	1015.566433951259	319.876672416771	288.755975992529	1110.293734831929	227.765758260916	342.686337276687	863.861794904413	393.268447371708	571.816078224663	780.124140279396	297.899849446247	631.998176697474	808.542573721319	200.550531958717	565.202971108555	657.810623265646	42.650184858726	533.417423772265	830.765007662909	96.416571998001	566.671177504360	742.202194204430	36.569383683597	606.082301990758	950.223030991133	43.423527935028	592.585853684517	1038.669049122155	47.034900994092	384.691058922694	1111.357053976437	51.070748604565	303.820669639936	1180.056411309803	130.321913407403	320.763242081228	1313.820548691174	103.976967326174	294.201886296467	741.424188913500	1104.972101930539	225.576735063726	763.865629269593	844.724761876840	203.158039295651	1054.180825448517	1098.567764168126	745.937144555788	1282.252242613676	1112.704794685352	634.592471403406	
21	14.962857142857	717.311191113139	999.577926354416	510.391248120584	867.498370587399	1433.232955410698	329.544749026044	989.675410403714	1356.848710799658	472.109700253992	931.097508728652	1426.097566985005	656.044961330962	886.066611631809	1488.309383199020	481.655229517175	948.763862367254	936.633472199848	614.323722431872	920.623606151974	955.701847709732	339.628932706889	953.924386917836	725.117401286413	583.784871553611	854.194619215691	626.617287928930	643.974521092214	917.291674862365	564.382263882555	562.728162786847	899.868325306773	476.249777862023	565.413604663771	997.940259476542	772.727986055794	367.564176157421	951.044864835990	641.721972357125	290.237310469320	1055.569988680906	585.405694460676	351.414062867430	1083.886188001645	522.292718568766	349.393519390034	1070.676324954480	450.345034139099	340.168087759801	1011.326422738554	317.277822363980	290.199727454811	1103.842685322622	223.491029224678	344.799489197370	860.625747428212	391.608969663988	570.629107833001	775.967175774018	297.323569335597	631.304272072191	802.574772576052	199.624987799025	564.498314928907	650.223794652602	42.646811847911	533.374798036661	823.153817754640	96.225242301950	566.434581132230	734.567590695680	36.517449106992	605.986366327601	942.624702052665	43.081463890591	592.621061436255	1028.286204617674	45.050856364267	386.883509690352	1100.896820859597	47.802896686089	305.847442713303	1171.555020126663	124.854556210839	323.413809819877	1304.593919526250	95.151084170005	296.394253088094	740.412777406482	1103.578686069308	224.034404791209	762.291546363825	843.153281431453	202.917071275507	1059.207424810830	1100.196311559169	742.879744129199	1284.626130459435	1123.839056534065	628.717917915341	
